<svg width="32" height="32" xmlns="http://www.w3.org/2000/svg">
  <title>Supabase with OpenTelemetry</title>
  <!-- Supabase logo scaled and positioned in top-left -->
  <g transform="translate(2, 1) scale(0.2)">
    <path d="M63.708 110.284c-2.86 3.601-8.658 1.628-8.727-2.97l-1.007-67.251h45.22c8.19 0 12.758 9.46 7.665 15.874L63.708 110.284z" fill="url(#a)"/>
    <path d="M63.708 110.284c-2.86 3.601-8.658 1.628-8.727-2.97l-1.007-67.251h45.22c8.19 0 12.758 9.46 7.665 15.874L63.708 110.284z" fill="url(#b)" fill-opacity=".2"/>
    <path d="M45.317 2.071c2.86-3.601 8.657-1.628 8.726 2.97l.442 67.251H9.83c-8.19 0-12.759-9.46-7.665-15.875L45.317 2.072z" fill="#3ECF8E"/>
    <defs>
      <linearGradient id="a" x1="53.974" y1="54.974" x2="94.163" y2="71.829" gradientUnits="userSpaceOnUse">
        <stop stop-color="#249361"/>
        <stop offset="1" stop-color="#3ECF8E"/>
      </linearGradient>
      <linearGradient id="b" x1="36.156" y1="30.578" x2="54.484" y2="79.837" gradientUnits="userSpaceOnUse">
        <stop/>
        <stop offset="1" stop-opacity="0"/>
      </linearGradient>
    </defs>
  </g>
  <!-- OpenTelemetry telescope badge in bottom-right -->
  <g transform="translate(18, 18) scale(0.44)">
    <path d="M12.821 12.833c-1.3397 1.3537-1.3397 3.5485 0 4.9022 1.3397 1.3537 3.5119 1.3537 4.8516 0 1.3397-1.3537 1.3397-3.5485 0-4.9022s-3.5119-1.3537-4.8516 0zm3.6267 3.6678c-0.66343 0.67039-1.7384 0.67039-2.4019 0-0.66343-0.67039-0.66343-1.7565 0-2.4269 0.66347-0.67039 1.7384-0.67039 2.4019 0 0.6635 0.66717 0.6635 1.7565 0 2.4269zm1.1675-20.724-2.102 2.124c-0.41145 0.41577-0.41145 1.099 0 1.5148l8.2072 8.2928c0.41145 0.4158 1.0877 0.4158 1.4992 0l2.102-2.1239c0.41148-0.41577 0.41148-1.099 0-1.5148l-8.2104-8.2928c-0.41148-0.41577-1.0845-0.41577-1.496 0zm-14.727 27.141c0.37319-0.37709 0.37319-0.99269 0-1.3698l-1.0686-1.0797c-0.37319-0.37712-0.98244-0.37712-1.3557 0l-2.2073 2.2303-0.00322 0.0032-0.60603-0.61238c-0.33492-0.3384-0.8804-0.3384-1.2121 0-0.33492 0.3384-0.33492 0.88955 0 1.2248l3.6363 3.6742c0.33492 0.3384 0.88037 0.3384 1.2121 0 0.33176-0.3384 0.33489-0.88955 0-1.2248l-0.60607-0.61238 0.003223-0.0032 2.2073-2.2303z" fill="#f5a800"/>
    <path d="M14.008 1.875l-4.6698 4.7185c-0.41464 0.41899-0.41464 1.1087 0 1.5277l2.8836 2.9136c2.0383-1.4826 4.8963-1.2989 6.7304 0.55437l2.3349-2.3592c0.41464-0.41899 0.41464-1.1087 0-1.5277l-5.767-5.8272c-0.41468-0.42221-1.0973-0.42221-1.5119 0zm-2.9984 10.388l-1.7033-1.7211c-0.39873-0.40285-1.0526-0.40285-1.4513 0l-6.0063 6.0722c-0.3987 0.40288-0.3987 1.0636 0 1.4665l3.4035 3.439c0.3987 0.40288 1.0526 0.40288 1.4513 0l3.8628-3.9095c-0.81656-1.705-0.66984-3.7645 0.44337-5.347z" fill="#425cc7"/>
  </g>
</svg>
